<svg width="23" height="23" viewBox="0 0 23 23" fill="none" xmlns="http://www.w3.org/2000/svg">
<path d="M14.9612 0V1.91667H1.91401V21.0833H21.0541V8.05H22.9681V21.0833C22.9681 21.5944 22.7767 22.0417 22.3939 22.425C22.0111 22.8083 21.5645 23 21.0541 23H1.91401C1.40361 23 0.957004 22.8083 0.574203 22.425C0.191401 22.0417 0 21.5944 0 21.0833V1.91667C0 1.40556 0.191401 0.958333 0.574203 0.575C0.957004 0.191667 1.40361 0 1.91401 0H14.9612ZM20.4161 0V2.5875H23V4.50417H20.4161V7.09167H18.5021V4.50417H15.9182V2.5875H18.5021V0H20.4161ZM3.82802 17.825H19.1401L14.5465 11.6917L10.4951 17.0264L7.49653 13.0653L3.82802 17.825ZM1.91401 1.91667V5.4625V8.05V21.0833V1.91667Z" fill="#4E4E4E"/>
</svg>
