<svg width="20" height="20" viewBox="0 0 20 20" fill="none" xmlns="http://www.w3.org/2000/svg">
<path d="M1.66667 20C1.22222 20 0.833333 19.8333 0.5 19.5C0.166667 19.1667 0 18.7778 0 18.3333V1.66667C0 1.22222 0.166667 0.833333 0.5 0.5C0.833333 0.166667 1.22222 0 1.66667 0H18.3333C18.7778 0 19.1667 0.166667 19.5 0.5C19.8333 0.833333 20 1.22222 20 1.66667V18.3333C20 18.7778 19.8333 19.1667 19.5 19.5C19.1667 19.8333 18.7778 20 18.3333 20H1.66667ZM1.66667 18.3333H18.3333V1.66667H1.66667V18.3333ZM5 15.3889C5.22222 15.3889 5.41667 15.3056 5.58333 15.1389C5.75 14.9722 5.83333 14.7778 5.83333 14.5556C5.83333 14.3333 5.75 14.1389 5.58333 13.9722C5.41667 13.8056 5.22222 13.7222 5 13.7222C4.77778 13.7222 4.58333 13.8056 4.41667 13.9722C4.25 14.1389 4.16667 14.3333 4.16667 14.5556C4.16667 14.7778 4.25 14.9722 4.41667 15.1389C4.58333 15.3056 4.77778 15.3889 5 15.3889ZM5 10.8333C5.22222 10.8333 5.41667 10.75 5.58333 10.5833C5.75 10.4167 5.83333 10.2222 5.83333 10C5.83333 9.77778 5.75 9.58333 5.58333 9.41667C5.41667 9.25 5.22222 9.16667 5 9.16667C4.77778 9.16667 4.58333 9.25 4.41667 9.41667C4.25 9.58333 4.16667 9.77778 4.16667 10C4.16667 10.2222 4.25 10.4167 4.41667 10.5833C4.58333 10.75 4.77778 10.8333 5 10.8333ZM5 6.27778C5.22222 6.27778 5.41667 6.19445 5.58333 6.02778C5.75 5.86111 5.83333 5.66667 5.83333 5.44444C5.83333 5.22222 5.75 5.02778 5.58333 4.86111C5.41667 4.69444 5.22222 4.61111 5 4.61111C4.77778 4.61111 4.58333 4.69444 4.41667 4.86111C4.25 5.02778 4.16667 5.22222 4.16667 5.44444C4.16667 5.66667 4.25 5.86111 4.41667 6.02778C4.58333 6.19445 4.77778 6.27778 5 6.27778ZM8.66667 15.3889H15.4444V13.7222H8.66667V15.3889ZM8.66667 10.8333H15.4444V9.16667H8.66667V10.8333ZM8.66667 6.27778H15.4444V4.61111H8.66667V6.27778ZM1.66667 18.3333V1.66667V18.3333Z" fill="#4E4E4E"/>
</svg>
