<svg width="20" height="20" viewBox="0 0 20 20" fill="none" xmlns="http://www.w3.org/2000/svg">
<path d="M1.66667 20C1.22222 20 0.833333 19.8333 0.5 19.5C0.166667 19.1667 0 18.7778 0 18.3333V1.66667C0 1.22222 0.166667 0.833333 0.5 0.5C0.833333 0.166667 1.22222 0 1.66667 0H14.5L20 5.5V18.3333C20 18.7778 19.8333 19.1667 19.5 19.5C19.1667 19.8333 18.7778 20 18.3333 20H1.66667ZM1.66667 18.3333H18.3333V6.41667H13.5833V1.66667H1.66667V18.3333ZM4.41667 15.25H15.5833V13.5833H4.41667V15.25ZM4.41667 6.41667H10V4.75H4.41667V6.41667ZM4.41667 10.8333H15.5833V9.16667H4.41667V10.8333ZM1.66667 1.66667V6.41667V1.66667V6.41667V18.3333V1.66667Z" fill="#4E4E4E"/>
</svg>
